<svg width="161" height="16" viewBox="0 0 161 16" fill="none" xmlns="http://www.w3.org/2000/svg">
<path d="M0.527063 12V0.639999H1.63106V10.464L8.67106 0.639999H9.71106V12H8.60706V2.352L1.64706 12H0.527063ZM12.3793 12V3.664H13.4673V7.248H18.2353V3.664H19.3233V12H18.2353V8.224H13.4673V12H12.3793ZM23.8034 12V4.64H20.8274V3.664H27.8674V4.64H24.8914V12H23.8034ZM32.9484 12.16C32.3511 12.16 31.7964 12.048 31.2844 11.824C30.7724 11.5893 30.3298 11.2747 29.9564 10.88C29.5831 10.4747 29.2898 10.0107 29.0764 9.488C28.8738 8.96533 28.7724 8.40533 28.7724 7.808C28.7724 7.02933 28.9484 6.31467 29.3004 5.664C29.6631 5.01333 30.1591 4.496 30.7884 4.112C31.4178 3.71733 32.1324 3.52 32.9324 3.52C33.7538 3.52 34.4684 3.71733 35.0764 4.112C35.6951 4.50667 36.1804 5.02933 36.5324 5.68C36.8844 6.32 37.0604 7.024 37.0604 7.792C37.0604 7.87733 37.0604 7.96267 37.0604 8.048C37.0604 8.12267 37.0551 8.18133 37.0444 8.224H29.9084C29.9618 8.82133 30.1271 9.35467 30.4044 9.824C30.6924 10.2827 31.0604 10.6507 31.5084 10.928C31.9671 11.1947 32.4631 11.328 32.9964 11.328C33.5404 11.328 34.0524 11.1893 34.5324 10.912C35.0231 10.6347 35.3644 10.272 35.5564 9.824L36.5004 10.08C36.3298 10.4747 36.0684 10.832 35.7164 11.152C35.3644 11.472 34.9484 11.7227 34.4684 11.904C33.9991 12.0747 33.4924 12.16 32.9484 12.16ZM29.8764 7.44H36.0364C35.9938 6.832 35.8284 6.29867 35.5404 5.84C35.2631 5.38133 34.8951 5.024 34.4364 4.768C33.9884 4.50133 33.4924 4.368 32.9484 4.368C32.4044 4.368 31.9084 4.50133 31.4604 4.768C31.0124 5.024 30.6444 5.38667 30.3564 5.856C30.0791 6.31467 29.9191 6.84267 29.8764 7.44ZM38.7231 12V3.664H43.6991V4.64H39.8111V12H38.7231ZM49.4794 12.16C48.7861 12.16 48.1621 11.9787 47.6074 11.616C47.0634 11.2533 46.6314 10.8053 46.3114 10.272V15.408H45.2234V3.664H46.1994V5.28C46.5301 4.75733 46.9728 4.336 47.5274 4.016C48.0821 3.68533 48.6741 3.52 49.3034 3.52C49.8794 3.52 50.4074 3.64267 50.8874 3.888C51.3674 4.12267 51.7834 4.44267 52.1354 4.848C52.4874 5.25333 52.7594 5.71733 52.9514 6.24C53.1541 6.752 53.2554 7.28533 53.2554 7.84C53.2554 8.61867 53.0954 9.33867 52.7754 10C52.4661 10.6507 52.0288 11.1733 51.4634 11.568C50.8981 11.9627 50.2368 12.16 49.4794 12.16ZM49.1754 11.2C49.6341 11.2 50.0448 11.1093 50.4074 10.928C50.7701 10.736 51.0794 10.48 51.3354 10.16C51.6021 9.84 51.8048 9.48267 51.9434 9.088C52.0821 8.68267 52.1514 8.26667 52.1514 7.84C52.1514 7.392 52.0714 6.96533 51.9114 6.56C51.7621 6.15467 51.5434 5.79733 51.2554 5.488C50.9674 5.17867 50.6368 4.93333 50.2634 4.752C49.8901 4.57067 49.4848 4.48 49.0474 4.48C48.7701 4.48 48.4821 4.53333 48.1834 4.64C47.8848 4.74667 47.5968 4.90133 47.3194 5.104C47.0528 5.296 46.8288 5.51467 46.6474 5.76C46.4661 6.00533 46.3541 6.26667 46.3114 6.544V9.104C46.4821 9.49867 46.7114 9.856 46.9994 10.176C47.2874 10.4853 47.6181 10.736 47.9914 10.928C48.3754 11.1093 48.7701 11.2 49.1754 11.2ZM54.4264 9.6C54.4264 9.07733 54.5758 8.62933 54.8744 8.256C55.1731 7.872 55.5838 7.57867 56.1064 7.376C56.6398 7.16267 57.2531 7.056 57.9464 7.056C58.3518 7.056 58.7731 7.088 59.2104 7.152C59.6478 7.216 60.0371 7.312 60.3784 7.44V6.736C60.3784 6.032 60.1704 5.472 59.7544 5.056C59.3384 4.64 58.7624 4.432 58.0264 4.432C57.5784 4.432 57.1358 4.51733 56.6984 4.688C56.2718 4.848 55.8238 5.088 55.3544 5.408L54.9384 4.64C55.4824 4.26667 56.0158 3.98933 56.5384 3.808C57.0611 3.616 57.5944 3.52 58.1384 3.52C59.1624 3.52 59.9731 3.81333 60.5704 4.4C61.1678 4.98667 61.4664 5.79733 61.4664 6.832V10.688C61.4664 10.8373 61.4984 10.9493 61.5624 11.024C61.6264 11.088 61.7278 11.1253 61.8664 11.136V12C61.7491 12.0107 61.6478 12.0213 61.5624 12.032C61.4771 12.0427 61.4131 12.0427 61.3704 12.032C61.1038 12.0213 60.9011 11.936 60.7624 11.776C60.6238 11.616 60.5491 11.4453 60.5384 11.264L60.5224 10.656C60.1491 11.136 59.6638 11.5093 59.0664 11.776C58.4691 12.032 57.8611 12.16 57.2424 12.16C56.7091 12.16 56.2238 12.048 55.7864 11.824C55.3598 11.5893 55.0238 11.28 54.7784 10.896C54.5438 10.5013 54.4264 10.0693 54.4264 9.6ZM60.0104 10.24C60.1278 10.0907 60.2184 9.94667 60.2824 9.808C60.3464 9.66933 60.3784 9.54667 60.3784 9.44V8.224C60.0158 8.08533 59.6371 7.97867 59.2424 7.904C58.8584 7.82933 58.4691 7.792 58.0744 7.792C57.2958 7.792 56.6664 7.94667 56.1864 8.256C55.7064 8.56533 55.4664 8.98667 55.4664 9.52C55.4664 9.82933 55.5464 10.1227 55.7064 10.4C55.8664 10.6667 56.1011 10.8907 56.4104 11.072C56.7198 11.2427 57.0824 11.328 57.4984 11.328C58.0211 11.328 58.5064 11.2267 58.9544 11.024C59.4131 10.8213 59.7651 10.56 60.0104 10.24ZM70.4572 13.936V12H63.8012V3.664H64.8892V11.04H69.2092V3.664H70.2972V11.04H71.4332V13.936H70.4572ZM73.0668 12V3.68H74.1548V10.528L79.2268 3.664H80.2028V12H79.1148V5.264L74.1228 12H73.0668ZM81.9588 12L84.4388 8.592C83.8735 8.50667 83.4148 8.26133 83.0628 7.856C82.7215 7.44 82.5508 6.87467 82.5508 6.16C82.5508 5.68 82.6628 5.25333 82.8868 4.88C83.1108 4.50667 83.4255 4.208 83.8308 3.984C84.2468 3.76 84.7321 3.648 85.2868 3.648H88.4708V12H87.3828V8.768H85.5268L83.1748 12H81.9588ZM85.2708 7.936H87.3828V4.512H85.4628C84.9081 4.512 84.4655 4.672 84.1348 4.992C83.8041 5.30133 83.6388 5.696 83.6388 6.176C83.6388 6.66667 83.7721 7.08267 84.0388 7.424C84.3161 7.76533 84.7268 7.936 85.2708 7.936ZM98.5582 12.16C97.9502 12.16 97.3902 12.048 96.8782 11.824C96.3769 11.5893 95.9342 11.2693 95.5502 10.864C95.1769 10.4587 94.8835 9.99467 94.6702 9.472C94.4675 8.94933 94.3662 8.39467 94.3662 7.808C94.3662 7.01867 94.5422 6.29867 94.8942 5.648C95.2462 4.99733 95.7369 4.48 96.3662 4.096C96.9955 3.712 97.7209 3.52 98.5422 3.52C99.3209 3.52 100.009 3.70133 100.606 4.064C101.204 4.416 101.646 4.896 101.934 5.504L100.878 5.84C100.644 5.41333 100.313 5.08267 99.8862 4.848C99.4702 4.60267 99.0062 4.48 98.4942 4.48C97.9395 4.48 97.4329 4.624 96.9742 4.912C96.5155 5.2 96.1475 5.59467 95.8702 6.096C95.6035 6.59733 95.4702 7.168 95.4702 7.808C95.4702 8.43733 95.6089 9.008 95.8862 9.52C96.1635 10.032 96.5315 10.4427 96.9902 10.752C97.4489 11.0507 97.9555 11.2 98.5102 11.2C98.8729 11.2 99.2195 11.136 99.5502 11.008C99.8915 10.88 100.185 10.7093 100.43 10.496C100.686 10.272 100.857 10.032 100.942 9.776L102.014 10.096C101.865 10.4907 101.614 10.848 101.262 11.168C100.921 11.4773 100.516 11.7227 100.046 11.904C99.5875 12.0747 99.0915 12.16 98.5582 12.16ZM111.418 12.16C110.81 12.16 110.25 12.048 109.738 11.824C109.236 11.5893 108.794 11.2693 108.41 10.864C108.036 10.4587 107.743 9.99467 107.53 9.472C107.327 8.94933 107.226 8.39467 107.226 7.808C107.226 7.01867 107.402 6.29867 107.754 5.648C108.106 4.99733 108.596 4.48 109.226 4.096C109.855 3.712 110.58 3.52 111.402 3.52C112.18 3.52 112.868 3.70133 113.466 4.064C114.063 4.416 114.506 4.896 114.794 5.504L113.738 5.84C113.503 5.41333 113.172 5.08267 112.746 4.848C112.33 4.60267 111.866 4.48 111.354 4.48C110.799 4.48 110.292 4.624 109.834 4.912C109.375 5.2 109.007 5.59467 108.73 6.096C108.463 6.59733 108.33 7.168 108.33 7.808C108.33 8.43733 108.468 9.008 108.746 9.52C109.023 10.032 109.391 10.4427 109.85 10.752C110.308 11.0507 110.815 11.2 111.37 11.2C111.732 11.2 112.079 11.136 112.41 11.008C112.751 10.88 113.044 10.7093 113.29 10.496C113.546 10.272 113.716 10.032 113.802 9.776L114.874 10.096C114.724 10.4907 114.474 10.848 114.122 11.168C113.78 11.4773 113.375 11.7227 112.906 11.904C112.447 12.0747 111.951 12.16 111.418 12.16ZM115.911 9.6C115.911 9.07733 116.06 8.62933 116.359 8.256C116.657 7.872 117.068 7.57867 117.591 7.376C118.124 7.16267 118.737 7.056 119.431 7.056C119.836 7.056 120.257 7.088 120.695 7.152C121.132 7.216 121.521 7.312 121.863 7.44V6.736C121.863 6.032 121.655 5.472 121.239 5.056C120.823 4.64 120.247 4.432 119.511 4.432C119.063 4.432 118.62 4.51733 118.183 4.688C117.756 4.848 117.308 5.088 116.839 5.408L116.423 4.64C116.967 4.26667 117.5 3.98933 118.023 3.808C118.545 3.616 119.079 3.52 119.623 3.52C120.647 3.52 121.457 3.81333 122.055 4.4C122.652 4.98667 122.951 5.79733 122.951 6.832V10.688C122.951 10.8373 122.983 10.9493 123.047 11.024C123.111 11.088 123.212 11.1253 123.351 11.136V12C123.233 12.0107 123.132 12.0213 123.047 12.032C122.961 12.0427 122.897 12.0427 122.855 12.032C122.588 12.0213 122.385 11.936 122.247 11.776C122.108 11.616 122.033 11.4453 122.023 11.264L122.007 10.656C121.633 11.136 121.148 11.5093 120.551 11.776C119.953 12.032 119.345 12.16 118.727 12.16C118.193 12.16 117.708 12.048 117.271 11.824C116.844 11.5893 116.508 11.28 116.263 10.896C116.028 10.5013 115.911 10.0693 115.911 9.6ZM121.495 10.24C121.612 10.0907 121.703 9.94667 121.767 9.808C121.831 9.66933 121.863 9.54667 121.863 9.44V8.224C121.5 8.08533 121.121 7.97867 120.727 7.904C120.343 7.82933 119.953 7.792 119.559 7.792C118.78 7.792 118.151 7.94667 117.671 8.256C117.191 8.56533 116.951 8.98667 116.951 9.52C116.951 9.82933 117.031 10.1227 117.191 10.4C117.351 10.6667 117.585 10.8907 117.895 11.072C118.204 11.2427 118.567 11.328 118.983 11.328C119.505 11.328 119.991 11.2267 120.439 11.024C120.897 10.8213 121.249 10.56 121.495 10.24ZM125.286 12V3.68H126.374V10.528L131.446 3.664H132.422V12H131.334V5.264L126.342 12H125.286ZM128.87 2.608C128.144 2.608 127.584 2.43733 127.19 2.096C126.795 1.75467 126.598 1.32267 126.598 0.799999H127.398C127.398 1.12 127.515 1.38667 127.75 1.6C127.995 1.81333 128.368 1.92 128.87 1.92C129.36 1.92 129.718 1.81867 129.942 1.616C130.176 1.41333 130.31 1.14133 130.342 0.799999H131.126C131.126 1.32267 130.928 1.75467 130.534 2.096C130.139 2.43733 129.584 2.608 128.87 2.608ZM136.882 12V4.64H133.906V3.664H140.946V4.64H137.97V12H136.882ZM145.979 12.16C145.381 12.16 144.827 12.048 144.315 11.824C143.813 11.5893 143.376 11.2747 143.003 10.88C142.64 10.4747 142.357 10.016 142.155 9.504C141.952 8.98133 141.851 8.432 141.851 7.856C141.851 7.25867 141.952 6.704 142.155 6.192C142.357 5.66933 142.645 5.21067 143.019 4.816C143.392 4.41067 143.829 4.096 144.331 3.872C144.843 3.63733 145.397 3.52 145.995 3.52C146.592 3.52 147.141 3.63733 147.643 3.872C148.144 4.096 148.581 4.41067 148.955 4.816C149.328 5.21067 149.616 5.66933 149.819 6.192C150.021 6.704 150.123 7.25867 150.123 7.856C150.123 8.432 150.021 8.98133 149.819 9.504C149.616 10.016 149.328 10.4747 148.955 10.88C148.592 11.2747 148.155 11.5893 147.643 11.824C147.141 12.048 146.587 12.16 145.979 12.16ZM142.955 7.872C142.955 8.49067 143.088 9.056 143.355 9.568C143.632 10.0693 144 10.4693 144.459 10.768C144.917 11.056 145.424 11.2 145.979 11.2C146.533 11.2 147.04 11.0507 147.499 10.752C147.957 10.4533 148.325 10.048 148.603 9.536C148.88 9.01333 149.019 8.448 149.019 7.84C149.019 7.22133 148.88 6.656 148.603 6.144C148.325 5.632 147.957 5.22667 147.499 4.928C147.04 4.62933 146.533 4.48 145.979 4.48C145.424 4.48 144.917 4.63467 144.459 4.944C144.011 5.25333 143.648 5.664 143.371 6.176C143.093 6.67733 142.955 7.24267 142.955 7.872ZM151.926 12V3.664H153.046L156.358 9.408L159.686 3.664H160.758V12H159.718V5.296L156.71 10.512H156.006L152.966 5.296V12H151.926Z" fill="black"/>
</svg>
