<svg width="53" height="53" viewBox="0 0 53 53" fill="none" xmlns="http://www.w3.org/2000/svg">
<g clip-path="url(#clip0_469_636)">
<path fill-rule="evenodd" clip-rule="evenodd" d="M48.0665 0.70459H4.9335C2.67818 0.70459 0.704773 2.53704 0.704773 4.93331V48.0663C0.704773 50.3216 2.53722 52.295 4.9335 52.295H48.0665C50.3218 52.295 52.2952 50.4626 52.2952 48.0663V4.93331C52.2952 2.53704 50.3218 0.70459 48.0665 0.70459Z" stroke="white" stroke-miterlimit="10"/>
<path d="M27.0638 52.2948V33.9703H20.5798V26.7815H26.7819C26.7819 26.7815 26.7819 23.2575 26.7819 20.5793C26.7819 18.0421 27.6276 12.4038 34.2526 12.4038C40.8776 12.4038 41.7234 12.4038 41.7234 12.4038V18.465C41.7234 18.465 37.0718 18.324 35.6622 19.0288C34.6755 19.4517 34.6755 20.5793 34.6755 21.707C34.6755 25.09 34.6755 26.7815 34.6755 26.7815H41.7234L40.4548 33.9703H34.6755V52.1538H27.0638V52.2948Z" fill="white"/>
</g>
<defs>
<clipPath id="clip0_469_636">
<rect width="53" height="53" fill="white"/>
</clipPath>
</defs>
</svg>
