<svg width="52" height="53" viewBox="0 0 52 53" fill="none" xmlns="http://www.w3.org/2000/svg">
<g clip-path="url(#clip0_469_640)">
<path fill-rule="evenodd" clip-rule="evenodd" d="M47.1596 0.70459H4.84043C2.62767 0.70459 0.691498 2.53704 0.691498 4.93331V48.0663C0.691498 50.3216 2.48937 52.295 4.84043 52.295H47.1596C49.3723 52.295 51.3085 50.4626 51.3085 48.0663V4.93331C51.3085 2.53704 49.3723 0.70459 47.1596 0.70459Z" stroke="white" stroke-miterlimit="10"/>
<path d="M26 14.941C29.7341 14.941 30.1489 14.941 31.5319 15.082C32.9149 15.082 33.6064 15.3639 34.1596 15.5049C34.8511 15.7868 35.266 16.0687 35.6809 16.4916C36.2341 17.0554 36.5106 17.4783 36.6489 18.0421C36.7872 18.6059 37.0638 19.3107 37.0638 20.7203C37.0638 22.2708 37.2021 22.6937 37.2021 26.3586C37.2021 30.1644 37.2021 30.5873 37.0638 31.9969C37.0638 33.4065 36.7872 34.1113 36.6489 34.6751C36.3723 35.3799 36.0958 35.8027 35.6809 36.2256C35.266 36.6485 34.7128 37.0714 34.1596 37.2123C33.6064 37.3533 32.9149 37.6352 31.5319 37.6352C30.0106 37.6352 29.5958 37.7762 26 37.7762C22.266 37.7762 21.8511 37.7762 20.4681 37.6352C19.0851 37.6352 18.3936 37.3533 17.8404 37.2123C17.1489 36.9304 16.7341 36.6485 16.3192 36.2256C15.9043 35.6618 15.4894 35.2389 15.3511 34.6751C15.2128 34.1113 14.9362 33.4065 14.9362 31.9969C14.9362 30.4464 14.7979 30.0235 14.7979 26.3586C14.7979 22.5527 14.7979 22.1299 14.9362 20.7203C14.9362 19.3107 15.2128 18.6059 15.3511 18.0421C15.6277 17.3373 15.9043 16.9144 16.3192 16.4916C16.8723 15.9277 17.2872 15.6458 17.8404 15.5049C18.3936 15.3639 19.0851 15.082 20.4681 15.082C21.8511 14.941 22.266 14.941 26 14.941ZM26 12.4038C22.266 12.4038 21.7128 12.4038 20.3298 12.5448C18.8085 12.5448 17.8404 12.8267 17.0106 13.2496C16.0426 13.6724 15.3511 14.0953 14.5213 14.941C13.6915 15.7868 13.2766 16.4916 12.8617 17.4783C12.5851 18.324 12.3085 19.4517 12.1702 20.8613C12.1702 22.4118 12.0319 22.8347 12.0319 26.6405C12.0319 30.4464 12.0319 31.0102 12.1702 32.4198C12.1702 33.9703 12.4468 34.957 12.8617 35.8027C13.2766 36.7894 13.6915 37.4942 14.5213 38.34C15.3511 39.1857 16.0426 39.6086 17.0106 40.0315C17.8404 40.3134 18.9468 40.5953 20.3298 40.7363C21.8511 40.7363 22.266 40.8772 26 40.8772C29.7341 40.8772 30.2872 40.8772 31.6702 40.7363C33.1915 40.7363 34.1596 40.4543 34.9894 40.0315C35.9575 39.6086 36.6489 39.1857 37.4787 38.34C38.3085 37.4942 38.7234 36.7894 39.1383 35.8027C39.4149 34.957 39.6915 33.8293 39.8298 32.4198C39.8298 30.8692 39.9681 30.4464 39.9681 26.6405C39.9681 22.8347 39.9681 22.2708 39.8298 20.8613C39.8298 19.3107 39.5532 18.324 39.1383 17.4783C38.7234 16.4916 38.3085 15.7868 37.4787 14.941C36.6489 14.0953 35.9575 13.6724 34.9894 13.2496C34.1596 12.9676 33.0532 12.6857 31.6702 12.5448C30.1489 12.4038 29.7341 12.4038 26 12.4038Z" fill="white"/>
<path d="M26 19.1699C22.1277 19.1699 18.9468 22.4119 18.9468 26.3588C18.9468 30.3056 22.1277 33.5476 26 33.5476C29.8723 33.5476 33.0532 30.3056 33.0532 26.3588C33.0532 22.4119 29.8723 19.1699 26 19.1699ZM26 31.1513C23.5106 31.1513 21.4362 29.0369 21.4362 26.4997C21.4362 23.9625 23.5106 21.8481 26 21.8481C28.4894 21.8481 30.5638 23.9625 30.5638 26.4997C30.5638 29.0369 28.4894 31.1513 26 31.1513Z" fill="white"/>
<path d="M34.9894 18.8878C34.9894 19.8745 34.2979 20.5793 33.3298 20.5793C32.3617 20.5793 31.6702 19.8745 31.6702 18.8878C31.6702 17.9011 32.3617 17.1963 33.3298 17.1963C34.2979 17.1963 34.9894 18.042 34.9894 18.8878Z" fill="white"/>
</g>
<defs>
<clipPath id="clip0_469_640">
<rect width="52" height="53" fill="white"/>
</clipPath>
</defs>
</svg>
