<svg width="53" height="53" viewBox="0 0 53 53" fill="none" xmlns="http://www.w3.org/2000/svg">
<g clip-path="url(#clip0_469_649)">
<path fill-rule="evenodd" clip-rule="evenodd" d="M48.0665 0.70459H4.9335C2.67818 0.70459 0.704773 2.53704 0.704773 4.93331V48.0663C0.704773 50.3216 2.53722 52.295 4.9335 52.295H48.0665C50.3218 52.295 52.2952 50.4626 52.2952 48.0663V4.93331C52.2952 2.53704 50.3218 0.70459 48.0665 0.70459Z" stroke="white" stroke-miterlimit="10"/>
<path d="M29.3192 21.4255C29.3192 22.5532 29.3192 23.8218 29.3192 24.9495C29.3192 25.3724 29.4601 25.9362 29.742 26.0771C30.0239 26.2181 30.5878 25.9362 30.8697 25.6543C31.5745 24.9495 32.4202 24.1037 32.9841 23.117C34.1117 21.2846 35.0984 19.4521 36.0851 17.6197C36.508 16.7739 37.0718 16.3511 38.0585 16.3511C39.1862 16.3511 40.4548 16.3511 41.5825 16.3511C42.7101 16.3511 42.992 16.7739 42.7101 17.9016C42.4282 18.7474 42.0053 19.5931 41.5825 20.2979C40.4548 22.2713 39.1862 24.2447 37.9176 26.0771C37.2128 27.2048 37.2128 27.4867 38.0585 28.4734C39.4681 30.0239 40.8777 31.5745 42.2872 33.266C42.7101 33.8298 43.133 34.5346 43.4149 35.2394C43.6968 36.0851 43.4149 36.6489 42.4282 36.6489C40.8777 36.7899 39.4681 36.7899 37.9176 36.6489C37.3537 36.6489 36.7899 36.0851 36.2261 35.5213C34.9575 34.3936 33.8298 33.125 32.7021 31.9974C32.1383 31.5745 31.5745 31.1516 31.0106 30.8697C29.883 30.3059 29.1782 30.7287 29.1782 31.9974C29.1782 32.9841 29.1782 34.1117 29.1782 35.0984C29.1782 36.2261 28.8963 36.508 27.7686 36.6489C25.6543 36.9309 23.6809 36.508 21.8484 35.6622C19.734 34.6755 17.9016 33.4069 16.492 31.5745C13.5319 27.9096 11.1356 23.9628 9.72607 19.5931C9.58511 19.0293 9.44416 18.3245 9.3032 17.6197C9.16224 16.9149 9.58511 16.492 10.1489 16.492C11.6995 16.492 13.109 16.492 14.6596 16.492C15.3644 16.492 15.6463 17.1968 15.9282 17.7606C16.633 19.4521 17.3378 21.1436 18.0426 22.8351C18.6064 23.9628 19.3112 24.9495 20.016 26.0771C20.2979 26.5 20.5798 26.9229 21.0027 27.2048C21.4255 27.6277 21.8484 28.1915 22.4122 27.9096C22.6942 27.7686 22.8351 27.0638 22.8351 26.5C22.8351 24.8085 22.8351 22.9761 22.8351 21.2846C22.8351 20.1569 22.5532 19.0293 21.7075 18.1835C21.4255 17.9016 21.2846 17.3378 21.4255 17.0559C21.5665 16.7739 22.1303 16.492 22.5532 16.492C24.3856 16.492 26.0771 16.492 27.9096 16.492C28.8963 16.492 29.1782 16.7739 29.1782 17.7606C29.3192 18.8883 29.3192 20.1569 29.3192 21.4255Z" fill="white"/>
</g>
<defs>
<clipPath id="clip0_469_649">
<rect width="53" height="53" fill="white"/>
</clipPath>
</defs>
</svg>
