<svg width="198" height="33" viewBox="0 0 198 33" fill="none" xmlns="http://www.w3.org/2000/svg">
<path d="M0.78 26V0.799998H10.608C12.816 0.799998 14.7 1.148 16.26 1.844C17.82 2.54 19.02 3.548 19.86 4.868C20.7 6.188 21.12 7.76 21.12 9.584C21.12 11.408 20.7 12.98 19.86 14.3C19.02 15.596 17.82 16.592 16.26 17.288C14.7 17.984 12.816 18.332 10.608 18.332H2.76L4.38 16.676V26H0.78ZM17.628 26L11.22 16.856H15.072L21.552 26H17.628ZM4.38 17.036L2.76 15.272H10.5C12.804 15.272 14.544 14.78 15.72 13.796C16.92 12.788 17.52 11.384 17.52 9.584C17.52 7.784 16.92 6.392 15.72 5.408C14.544 4.424 12.804 3.932 10.5 3.932H2.76L4.38 2.132V17.036ZM38.3123 26.288C36.3923 26.288 34.6043 25.964 32.9483 25.316C31.3163 24.668 29.9003 23.768 28.7003 22.616C27.5003 21.44 26.5643 20.072 25.8923 18.512C25.2203 16.952 24.8843 15.248 24.8843 13.4C24.8843 11.552 25.2203 9.848 25.8923 8.288C26.5643 6.728 27.5003 5.372 28.7003 4.22C29.9003 3.044 31.3163 2.132 32.9483 1.484C34.5803 0.835999 36.3683 0.512 38.3123 0.512C40.2323 0.512 41.9963 0.835999 43.6043 1.484C45.2363 2.108 46.6523 3.008 47.8523 4.184C49.0763 5.336 50.0123 6.692 50.6603 8.252C51.3323 9.812 51.6683 11.528 51.6683 13.4C51.6683 15.272 51.3323 16.988 50.6603 18.548C50.0123 20.108 49.0763 21.476 47.8523 22.652C46.6523 23.804 45.2363 24.704 43.6043 25.352C41.9963 25.976 40.2323 26.288 38.3123 26.288ZM38.3123 23.084C39.7043 23.084 40.9883 22.844 42.1642 22.364C43.3643 21.884 44.3963 21.212 45.2603 20.348C46.1483 19.46 46.8323 18.428 47.3123 17.252C47.8163 16.076 48.0683 14.792 48.0683 13.4C48.0683 12.008 47.8163 10.724 47.3123 9.548C46.8323 8.372 46.1483 7.352 45.2603 6.488C44.3963 5.6 43.3643 4.916 42.1642 4.436C40.9883 3.956 39.7043 3.716 38.3123 3.716C36.8963 3.716 35.5883 3.956 34.3883 4.436C33.2123 4.916 32.1803 5.6 31.2923 6.488C30.4043 7.352 29.7083 8.372 29.2043 9.548C28.7243 10.724 28.4843 12.008 28.4843 13.4C28.4843 14.792 28.7243 16.076 29.2043 17.252C29.7083 18.428 30.4043 19.46 31.2923 20.348C32.1803 21.212 33.2123 21.884 34.3883 22.364C35.5883 22.844 36.8963 23.084 38.3123 23.084ZM68.4386 26.288C66.5186 26.288 64.7426 25.976 63.1106 25.352C61.5026 24.704 60.0986 23.804 58.8986 22.652C57.7226 21.476 56.7986 20.108 56.1266 18.548C55.4546 16.988 55.1186 15.272 55.1186 13.4C55.1186 11.528 55.4546 9.812 56.1266 8.252C56.7986 6.692 57.7346 5.336 58.9346 4.184C60.1346 3.008 61.5386 2.108 63.1466 1.484C64.7786 0.835999 66.5546 0.512 68.4746 0.512C70.4186 0.512 72.2066 0.848 73.8386 1.52C75.4946 2.168 76.8986 3.14 78.0506 4.436L75.7106 6.704C74.7506 5.696 73.6706 4.952 72.4706 4.472C71.2706 3.968 69.9866 3.716 68.6186 3.716C67.2026 3.716 65.8826 3.956 64.6586 4.436C63.4586 4.916 62.4146 5.588 61.5266 6.452C60.6386 7.316 59.9426 8.348 59.4386 9.548C58.9586 10.724 58.7186 12.008 58.7186 13.4C58.7186 14.792 58.9586 16.088 59.4386 17.288C59.9426 18.464 60.6386 19.484 61.5266 20.348C62.4146 21.212 63.4586 21.884 64.6586 22.364C65.8826 22.844 67.2026 23.084 68.6186 23.084C69.9866 23.084 71.2706 22.844 72.4706 22.364C73.6706 21.86 74.7506 21.092 75.7106 20.06L78.0506 22.328C76.8986 23.624 75.4946 24.608 73.8386 25.28C72.2066 25.952 70.4066 26.288 68.4386 26.288ZM86.3543 19.916L86.1743 15.524L100.466 0.799998H104.57L93.5183 12.464L91.5023 14.696L86.3543 19.916ZM83.1863 26V0.799998H86.7863V26H83.1863ZM101.042 26L90.7103 13.976L93.1223 11.312L105.254 26H101.042ZM112.337 11.672H125.297V14.732H112.337V11.672ZM112.661 22.868H127.349V26H109.061V0.799998H126.845V3.932H112.661V22.868ZM138.182 26V3.932H129.542V0.799998H150.386V3.932H141.746V26H138.182Z" fill="white"/>
<path d="M161.831 26.216C160.199 26.216 158.759 25.916 157.511 25.316C156.287 24.716 155.327 23.804 154.631 22.58C153.959 21.332 153.623 19.772 153.623 17.9V6.92H157.079V17.504C157.079 19.376 157.523 20.78 158.411 21.716C159.323 22.652 160.595 23.12 162.227 23.12C163.427 23.12 164.471 22.88 165.359 22.4C166.247 21.896 166.931 21.176 167.411 20.24C167.891 19.28 168.131 18.128 168.131 16.784V6.92H171.587V26H168.311V20.852L168.851 22.22C168.227 23.492 167.291 24.476 166.043 25.172C164.795 25.868 163.391 26.216 161.831 26.216ZM188.283 26.216C186.699 26.216 185.247 25.856 183.927 25.136C182.631 24.392 181.587 23.3 180.795 21.86C180.027 20.42 179.643 18.62 179.643 16.46C179.643 14.3 180.015 12.5 180.759 11.06C181.527 9.62 182.559 8.54 183.855 7.82C185.175 7.1 186.651 6.74 188.283 6.74C190.155 6.74 191.811 7.148 193.251 7.964C194.691 8.78 195.831 9.92 196.671 11.384C197.511 12.824 197.931 14.516 197.931 16.46C197.931 18.404 197.511 20.108 196.671 21.572C195.831 23.036 194.691 24.176 193.251 24.992C191.811 25.808 190.155 26.216 188.283 26.216ZM178.167 32.984V6.92H181.479V12.068L181.263 16.496L181.623 20.924V32.984H178.167ZM187.995 23.192C189.219 23.192 190.311 22.916 191.271 22.364C192.255 21.812 193.023 21.032 193.575 20.024C194.151 18.992 194.439 17.804 194.439 16.46C194.439 15.092 194.151 13.916 193.575 12.932C193.023 11.924 192.255 11.144 191.271 10.592C190.311 10.04 189.219 9.764 187.995 9.764C186.795 9.764 185.703 10.04 184.719 10.592C183.759 11.144 182.991 11.924 182.415 12.932C181.863 13.916 181.587 15.092 181.587 16.46C181.587 17.804 181.863 18.992 182.415 20.024C182.991 21.032 183.759 21.812 184.719 22.364C185.703 22.916 186.795 23.192 187.995 23.192Z" fill="#FF6F00"/>
</svg>
